<svg width="32" height="32" viewBox="0 0 32 32" fill="none" xmlns="http://www.w3.org/2000/svg">
<path d="M28.768 8.0641C27.808 8.4801 26.816 8.7681 25.76 8.8961C26.848 8.2561 27.68 7.2321 28.064 5.9841C27.04 6.5921 25.92 7.0081 24.736 7.2641C23.776 6.2401 22.4 5.6001 20.896 5.6001C17.984 5.6001 15.648 7.9681 15.648 10.8481C15.648 11.2641 15.68 11.6481 15.776 12.0321C11.424 11.8401 7.584 9.7281 4.992 6.5601C3.136 9.8881 5.216 12.6401 6.592 13.5681C5.76 13.5681 4.928 13.3121 4.224 12.9281C4.224 15.5201 6.048 17.6641 8.416 18.1441C7.904 18.3041 6.752 18.4001 6.048 18.2401C6.72 20.3201 8.672 21.8561 10.944 21.8881C9.152 23.2961 6.528 24.4161 3.168 24.0641C5.504 25.5681 8.256 26.4321 11.232 26.4321C20.896 26.4321 26.144 18.4321 26.144 11.5201C26.144 11.2961 26.144 11.0721 26.112 10.8481C27.2 10.0481 28.096 9.1201 28.768 8.0641Z" fill="#00AB38"/>
</svg>
